# xmcd
#
# Track frame offsets: 
#        150
#        13777
#        28247
#        41142
#        55055
#        68007
#        81880
#        94715
#        109217
#        122770
#        136015
#        148002
#        161145
#        175372
#        188535
#        201570
#        215380
#        228282
#
# Disc length: 3216 seconds
#
# Revision: 2
# Processed by: cddbd v1.5.2PL0 Copyright (c) Steve Scherf et al.
# Submitted via: ExactAudioCopyFreeDBPlugin 1.0
#
DISCID=010c8e12
DTITLE=Skip James - Complete 1931 Recordings
DYEAR=1900
DGENRE=
TTITLE0=Devil Got My Woman
TTITLE1=Cypress Grove Blues
TTITLE2=Cherry Ball Blues
TTITLE3=Illinois Blues
TTITLE4=Four O'Clock Blues
TTITLE5=Hard-Luck Child
TTITLE6=Hard Time Killin' Floor Blues
TTITLE7=Yola My Blues Away
TTITLE8=Jesus Is a Mighty Good Leader
TTITLE9=Be Ready When He Comes
TTITLE10=Drunken Spree
TTITLE11=I'm So Glad
TTITLE12=Special Rider Blues
TTITLE13=How Long "Buck"
TTITLE14=Little Cow and Calf Is Gonna Die Blues
TTITLE15=What Am I to Do Blues
TTITLE16=22-20 Blues
TTITLE17=If You Haven't Any Hay Get On Down the Road
EXTD=
EXTT0=
EXTT1=
EXTT2=
EXTT3=
EXTT4=
EXTT5=
EXTT6=
EXTT7=
EXTT8=
EXTT9=
EXTT10=
EXTT11=
EXTT12=
EXTT13=
EXTT14=
EXTT15=
EXTT16=
EXTT17=
PLAYORDER=
